<svg xmlns="http://www.w3.org/2000/svg" viewBox="0 0 101.94 267.97"><path d="M57.69,267.97c-8.57,0-15.59-3.01-21.1-9.01-5.51-6-8.26-15.86-8.26-29.59V91.91c0-2.95-1.47-4.41-4.4-4.41h-10.64c-3.92,0-5.87-1.47-5.87-4.41,0-1.96,1.1-3.68,3.3-5.15,8.07-5.63,14.55-11.7,19.45-18.19,4.89-6.49,9.17-15.38,12.84-26.65,1.71-5.15,3.79-7.72,6.24-7.72,2.69,0,4.04,1.96,4.04,5.88v40.8c0,3.44,1.71,5.15,5.14,5.15h23.85c3.91,0,5.87,1.71,5.87,5.15s-1.96,5.15-5.87,5.15h-23.85c-3.43,0-5.14,1.71-5.14,5.15v137.11c0,5.39.85,9.62,2.57,12.68,1.71,3.07,4.89,4.6,9.54,4.6,5.14,0,9.36-2.57,12.66-7.71,3.3-5.15,5.44-13.47,6.42-25,.49-3.43,2.07-5.15,4.77-5.15,2.94,0,4.4,1.83,4.4,5.51-.73,18.87-4.59,32.47-11.56,40.8-6.97,8.34-15.11,12.49-24.4,12.49v-.03Z" style="fill:#f919a9; stroke-width:0px;"/></svg>