<svg xmlns="http://www.w3.org/2000/svg" viewBox="0 0 175.84 267.97"><path d="M34.67,267.97c-8.81,0-15.66-3.8-20.55-11.39-4.89-7.59-7.34-18.74-7.34-33.45s1.96-27.99,5.87-42.09c3.91-14.09,9.29-27.51,16.14-40.25,6.85-12.74,14.61-24.01,23.3-33.82,8.68-9.8,17.85-17.58,27.52-23.34,9.66-5.75,19.26-8.64,28.8-8.64,4.64,0,9.05.92,13.21,2.76,4.16,1.83,7.58,4.72,10.27,8.64,1.47,2.2,2.94,3.31,4.4,3.31s2.93-1.1,4.4-3.31c2.69-3.92,4.89-6.43,6.61-7.53,1.71-1.1,3.3-1.65,4.77-1.65,3.18,0,4.4,1.71,3.67,5.15l-32.65,140.78c-3.67,15.93-1.23,23.89,7.34,23.89,5.62,0,10.7-3.8,15.23-11.39,4.52-7.59,9.11-19.35,13.76-35.29.73-2.69,2.32-4.05,4.77-4.05,1.71,0,2.81.73,3.3,2.2.49,1.47.49,3.19,0,5.15-4.65,23.04-10.89,39.51-18.71,49.44-7.83,9.93-17.25,14.89-28.25,14.89-9.54,0-16.33-4.05-20.36-12.13-4.04-8.08-4.47-19.11-1.28-33.08l4.77-20.22c.49-1.71.18-2.69-.92-2.94-1.1-.24-2.02.37-2.75,1.83-13.46,24.76-25.38,42.03-35.77,51.83-10.4,9.81-20.24,14.71-29.54,14.71h-.01ZM43.84,249.23c5.87,0,12.35-3.55,19.45-10.66,7.1-7.11,14.12-16.29,21.1-27.57,6.97-11.27,13.39-23.4,19.26-36.39,5.87-12.98,10.58-25.49,14.12-37.49,3.54-12,5.32-22.18,5.32-30.51,0-14.95-5.26-22.42-15.78-22.42-6.36,0-13.09,2.89-20.18,8.64-7.1,5.76-13.89,13.55-20.36,23.34-6.48,9.81-12.35,20.9-17.61,33.26-5.26,12.37-9.48,25.25-12.66,38.6-3.18,13.36-4.77,26.41-4.77,39.15,0,8.57,1.04,14.4,3.12,17.46,2.07,3.07,5.07,4.6,8.99,4.6v-.02Z" style="fill:#f919a9; stroke-width:0px;"/></svg>