<svg xmlns="http://www.w3.org/2000/svg" viewBox="0 0 150.89 267.97"><path d="M53.48,267.97c-11.99,0-20.91-4.53-26.79-13.6-5.87-9.07-6.97-20.71-3.3-34.92l28.25-106.23c3.18-11.51,1.22-17.27-5.87-17.27-5.14,0-10.22,3.68-15.23,11.03-5.02,7.35-10.46,19.36-16.33,36.03-.98,2.94-2.69,4.41-5.14,4.41-1.23,0-2.2-.55-2.94-1.65-.73-1.1-.86-2.5-.37-4.23,14.18-44.35,31.92-66.53,53.2-66.53,8.31,0,13.94,3.44,16.88,10.29,2.93,6.86,2.81,16.3-.37,28.3l-28.99,109.54c-2.69,10.29-2.88,18.19-.55,23.71,2.32,5.51,6.54,8.28,12.66,8.28,7.09,0,14.61-3.43,22.56-10.29,7.95-6.86,15.47-15.81,22.56-26.83,7.09-11.03,12.84-23.16,17.25-36.39,4.4-13.23,6.6-26.22,6.6-38.96,0-10.29-1.1-18.43-3.3-24.45-2.2-6-4.47-11.08-6.79-15.26-2.33-4.17-3.48-8.7-3.48-13.6,0-9.56,4.16-14.34,12.47-14.34,11.74,0,17.61,12.99,17.61,38.96,0,18.62-2.69,37.07-8.07,55.32-5.38,18.25-12.47,34.8-21.28,49.62-8.81,14.83-18.53,26.71-29.17,35.66-10.64,8.95-21.34,13.41-32.1,13.41h.03Z" style="fill:#f919a9; stroke-width:0px;"/></svg>