<svg xmlns="http://www.w3.org/2000/svg" viewBox="0 0 99.69 267.97"><path d="M45.03,267.97c-5.63,0-11.62-.68-17.98-2.02-6.36-1.34-11.5-3-15.41-4.96-2.2-1.22-3.3-3.31-3.3-6.25l-1.1-41.17c0-4.17,1.59-6.25,4.77-6.25,2.69,0,4.52,1.96,5.5,5.88,4.16,17.4,9.23,29.28,15.22,35.65,5.99,6.37,13.27,9.56,21.83,9.56,7.09,0,12.96-2.75,17.61-8.27,4.64-5.51,6.97-13.17,6.97-22.97s-2.69-18.5-8.07-26.1c-5.38-7.59-14.44-15.93-27.15-25-12.72-8.58-22.01-17.21-27.88-25.92-5.87-8.7-8.81-18.19-8.81-28.49,0-13.97,4.89-25.24,14.68-33.82,9.78-8.58,22.75-12.86,38.89-12.86,4.89,0,9.66.55,14.31,1.65,4.64,1.1,8.81,2.89,12.48,5.33,2.2,1.47,3.3,3.44,3.3,5.88l.73,40.43c0,3.68-1.47,5.51-4.4,5.51-1.72,0-2.94-.55-3.67-1.65-.73-1.1-1.35-2.51-1.83-4.23-4.9-15.93-9.79-27.02-14.68-33.27-4.9-6.25-10.89-9.38-17.98-9.38-6.36,0-11.62,2.2-15.78,6.61-4.16,4.41-6.24,9.93-6.24,16.54,0,8.59,2.57,16.05,7.7,22.42,5.14,6.37,14.43,14.22,27.89,23.52,12.23,8.83,21.46,18.32,27.7,28.49,6.24,10.17,9.36,21.26,9.36,33.27,0,15.69-5.02,28.24-15.04,37.68-10.03,9.44-23.24,14.16-39.63,14.16v.02Z" style="fill:#f919a9; stroke-width:0px;"/></svg>