<svg xmlns="http://www.w3.org/2000/svg" viewBox="0 0 89.35 268"><path d="M12.93,264.66c-3.67,0-5.5-1.34-5.5-4.05,0-2.2,1.59-3.68,4.77-4.41l4.4-.73c6.11-.97,10.03-2.51,11.74-4.6,1.71-2.08,2.57-5.7,2.57-10.84v-123.51c0-4.41-.68-7.41-2.02-9.01-1.35-1.59-3.73-2.64-7.16-3.13l-7.7-1.1c-3.18-.24-4.77-1.59-4.77-4.05,0-1.95,1.95-3.31,5.87-4.05,7.58-1.22,13.7-3.19,18.35-5.88,4.64-2.69,9.17-6,13.58-9.93,2.2-2.2,4.04-3.31,5.5-3.31,2.2,0,3.3,1.47,3.3,4.41v159.53c0,5.15.73,8.83,2.2,11.03,1.47,2.2,4.28,3.56,8.44,4.05l9.17,1.1c2.69.49,4.04,1.83,4.04,4.05,0,2.94-1.83,4.41-5.5,4.41H12.93ZM43.75,42.28c-5.14,0-9.48-1.83-13.02-5.51-3.55-3.68-5.32-8.33-5.32-13.97s1.77-10.23,5.32-13.79c3.55-3.56,7.89-5.33,13.02-5.33s9.41,1.78,12.84,5.33c3.42,3.56,5.14,8.15,5.14,13.79s-1.71,10.29-5.14,13.97c-3.43,3.68-7.7,5.51-12.84,5.51Z" style="fill:#f919a9; stroke-width:0px;"/></svg>