<svg xmlns="http://www.w3.org/2000/svg" viewBox="0 0 125.47 268"><path d="M58.59,100.72c10.03-17.15,22.13-25.73,36.32-25.73,8.07,0,14.06,2.39,17.98,7.17,3.91,4.78,5.87,10.11,5.87,15.99,0,4.66-1.16,8.46-3.49,11.39-2.33,2.95-5.93,4.41-10.82,4.41-3.91,0-6.79-.92-8.62-2.75-1.83-1.83-3.3-3.98-4.4-6.43-1.1-2.44-2.38-4.6-3.85-6.43-1.47-1.83-3.91-2.75-7.34-2.75-4.4,0-8.56,2.63-12.47,7.9-3.91,5.27-7.15,12.31-9.72,21.14-2.57,8.83-3.85,18.88-3.85,30.14v85.28c0,5.15.79,8.83,2.38,11.03,1.59,2.2,4.95,3.56,10.09,4.05l9.91,1.1c2.69.49,4.04,1.83,4.04,4.05,0,2.95-1.83,4.41-5.5,4.41H13.11c-3.67,0-5.5-1.34-5.5-4.05,0-2.2,1.59-3.68,4.77-4.41l4.4-.73c5.14-.97,8.5-2.51,10.09-4.6,1.59-2.08,2.38-5.7,2.38-10.84v-123.51c0-4.41-.68-7.41-2.02-9.01-1.35-1.59-3.73-2.63-7.16-3.13l-7.71-1.1c-3.18-.24-4.77-1.59-4.77-4.05,0-1.95,1.95-3.31,5.87-4.05,7.58-1.22,13.39-3.19,17.43-5.88,4.04-2.69,8.26-6,12.66-9.93,2.2-2.2,4.04-3.31,5.5-3.31,2.2,0,3.3,1.47,3.3,4.41v19.85c0,1.71.73,2.76,2.2,3.12,1.47.37,2.81-.55,4.04-2.75h0Z" style="fill:#f919a9; stroke-width:0px;"/></svg>