<svg xmlns="http://www.w3.org/2000/svg" viewBox="0 0 242.96 268"><path d="M110.44,260.99c-.98,0-2.08-.37-3.3-1.1-1.23-.73-2.08-2.32-2.57-4.78L49.17,29.78c-.25-1.71-.98-2.51-2.2-2.39-1.23.13-1.83,1.04-1.83,2.75l-7.34,202.9c-.25,6.86.85,12.07,3.3,15.62,2.44,3.56,6.72,5.82,12.84,6.8l4.77.73c3.18.25,4.77,1.71,4.77,4.41s-1.83,4.05-5.5,4.05H5.5c-3.67,0-5.5-1.34-5.5-4.05s1.59-4.17,4.77-4.41l4.77-.73c6.36-.97,10.7-3.25,13.03-6.8,2.32-3.55,3.61-8.76,3.85-15.62l7.34-208.78c.24-5.15-.49-8.58-2.2-10.29-1.71-1.71-5.38-3.07-11.01-4.05l-8.44-1.47c-3.18-.73-4.77-2.2-4.77-4.41,0-2.69,1.83-4.05,5.5-4.05h44.03c7.58,0,12.23,3.68,13.94,11.03l44.4,183.42c.49,1.71,1.28,2.57,2.38,2.57s1.77-.85,2.02-2.57L165.84,9.2C167.31,3.08,171.22.01,177.58.01h43.29c3.67,0,5.5,1.35,5.5,4.05,0,2.2-1.59,3.68-4.77,4.41l-8.44,1.47c-5.14.98-8.57,2.33-10.27,4.05-1.7,1.71-2.45,5.15-2.2,10.29l7.34,216.13c.24,5.15,1.1,8.59,2.57,10.29,1.47,1.71,4.77,3.07,9.91,4.05l8.44,1.47c3.18.73,4.77,2.2,4.77,4.41,0,2.7-1.83,4.05-5.5,4.05h-66.41c-3.67,0-5.5-1.34-5.5-4.05,0-2.2,1.59-3.68,4.77-4.41l8.44-1.47c5.14-.97,8.56-2.32,10.27-4.05,1.71-1.71,2.44-5.15,2.2-10.29l-6.24-210.25c0-1.71-.55-2.63-1.65-2.75-1.1-.12-1.9.55-2.39,2.02l-55.77,225.69c-.49,2.46-1.28,4.05-2.38,4.78-1.1.73-2.14,1.1-3.12,1.1h0Z" style="fill:#f919a9; stroke-width:0px;"/></svg>