<?xml version="1.0" encoding="utf-8"?>
<!-- Generator: Adobe Illustrator 28.1.0, SVG Export Plug-In . SVG Version: 6.00 Build 0)  -->
<svg version="1.1" id="Layer_1" xmlns="http://www.w3.org/2000/svg" xmlns:xlink="http://www.w3.org/1999/xlink" x="0px" y="0px"
	 viewBox="0 0 99.7 268" style="enable-background:new 0 0 99.7 268;" xml:space="preserve">
<style type="text/css">
	.st0{fill:#F919A9;}
</style>
<path class="st0" d="M-1181.9,261c-1,0-2.1-0.4-3.3-1.1c-1.2-0.7-2.1-2.3-2.6-4.8l-55.4-225.3c-0.2-1.7-1-2.5-2.2-2.4
	c-1.2,0.1-1.8,1-1.8,2.8l-7.3,202.9c-0.2,6.9,0.8,12.1,3.3,15.6c2.4,3.6,6.7,5.8,12.8,6.8l4.8,0.7c3.2,0.3,4.8,1.7,4.8,4.4
	c0,2.7-1.8,4-5.5,4h-52.5c-3.7,0-5.5-1.3-5.5-4c0-2.7,1.6-4.2,4.8-4.4l4.8-0.7c6.4-1,10.7-3.2,13-6.8c2.3-3.5,3.6-8.8,3.8-15.6
	l7.3-208.8c0.2-5.1-0.5-8.6-2.2-10.3c-1.7-1.7-5.4-3.1-11-4l-8.4-1.5c-3.2-0.7-4.8-2.2-4.8-4.4c0-2.7,1.8-4,5.5-4h44
	c7.6,0,12.2,3.7,13.9,11l44.4,183.4c0.5,1.7,1.3,2.6,2.4,2.6s1.8-0.9,2-2.6l46.2-185.3c1.5-6.1,5.4-9.2,11.7-9.2h43.3
	c3.7,0,5.5,1.4,5.5,4c0,2.2-1.6,3.7-4.8,4.4l-8.4,1.5c-5.1,1-8.6,2.3-10.3,4c-1.7,1.7-2.4,5.1-2.2,10.3l7.3,216.1
	c0.2,5.2,1.1,8.6,2.6,10.3c1.5,1.7,4.8,3.1,9.9,4l8.4,1.5c3.2,0.7,4.8,2.2,4.8,4.4c0,2.7-1.8,4-5.5,4h-66.4c-3.7,0-5.5-1.3-5.5-4
	c0-2.2,1.6-3.7,4.8-4.4l8.4-1.5c5.1-1,8.6-2.3,10.3-4c1.7-1.7,2.4-5.1,2.2-10.3l-6.2-210.3c0-1.7-0.5-2.6-1.6-2.8
	c-1.1-0.1-1.9,0.6-2.4,2l-55.8,225.7c-0.5,2.5-1.3,4-2.4,4.8C-1179.8,260.6-1180.9,261-1181.9,261L-1181.9,261z"/>
<path class="st0" d="M-993.3,268c-15.2,0-27.1-6.3-36-18.9c-8.8-12.6-13.2-29.7-13.2-51.3c0-15.9,2.6-31.2,7.7-45.9
	c5.1-14.7,11.9-27.8,20.4-39.3c8.4-11.5,17.8-20.6,28.2-27.4c10.4-6.7,20.8-10.1,31.4-10.1c15.2,0,27.2,6.3,36,18.7
	c8.8,12.5,13.2,29.7,13.2,51.5c0,15.9-2.6,31.2-7.7,45.9c-5.1,14.7-11.9,27.8-20.4,39.3c-8.4,11.5-17.9,20.6-28.2,27.4
	C-972.3,264.6-982.8,268-993.3,268L-993.3,268z M-994,259.2c7.8,0,15.5-3.8,22.9-11.4c7.5-7.6,14.2-17.6,20.4-30.1
	c6.1-12.5,11-26.4,14.7-41.7c3.7-15.3,5.5-30.7,5.5-46.1c0-30.6-8-45.9-23.9-45.9c-7.6,0-15.2,3.7-22.8,11.2
	c-7.6,7.5-14.4,17.5-20.4,30c-6,12.5-10.8,26.4-14.5,41.7c-3.7,15.3-5.5,30.7-5.5,46.1C-1017.5,243.7-1009.7,259.2-994,259.2z"/>
<path class="st0" d="M-840.3,268c-8.6,0-15.6-3-21.1-9c-5.5-6-8.3-15.9-8.3-29.6V91.9c0-2.9-1.5-4.4-4.4-4.4h-10.6
	c-3.9,0-5.9-1.5-5.9-4.4c0-2,1.1-3.7,3.3-5.1c8.1-5.6,14.5-11.7,19.5-18.2c4.9-6.5,9.2-15.4,12.8-26.6c1.7-5.1,3.8-7.7,6.2-7.7
	c2.7,0,4,2,4,5.9v40.8c0,3.4,1.7,5.1,5.1,5.1h23.8c3.9,0,5.9,1.7,5.9,5.1c0,3.4-2,5.1-5.9,5.1h-23.8c-3.4,0-5.1,1.7-5.1,5.1v137.1
	c0,5.4,0.8,9.6,2.6,12.7c1.7,3.1,4.9,4.6,9.5,4.6c5.1,0,9.4-2.6,12.7-7.7c3.3-5.1,5.4-13.5,6.4-25c0.5-3.4,2.1-5.1,4.8-5.1
	c2.9,0,4.4,1.8,4.4,5.5c-0.7,18.9-4.6,32.5-11.6,40.8C-822.9,263.8-831,268-840.3,268L-840.3,268z"/>
<path class="st0" d="M-784.5,264.7c-3.7,0-5.5-1.3-5.5-4c0-2.2,1.6-3.7,4.8-4.4l4.4-0.7c6.1-1,10-2.5,11.7-4.6
	c1.7-2.1,2.6-5.7,2.6-10.8V116.5c0-4.4-0.7-7.4-2-9c-1.3-1.6-3.7-2.6-7.2-3.1l-7.7-1.1c-3.2-0.2-4.8-1.6-4.8-4c0-2,2-3.3,5.9-4
	c7.6-1.2,13.7-3.2,18.4-5.9c4.6-2.7,9.2-6,13.6-9.9c2.2-2.2,4-3.3,5.5-3.3c2.2,0,3.3,1.5,3.3,4.4V240c0,5.1,0.7,8.8,2.2,11
	c1.5,2.2,4.3,3.6,8.4,4l9.2,1.1c2.7,0.5,4,1.8,4,4c0,2.9-1.8,4.4-5.5,4.4H-784.5L-784.5,264.7z M-753.7,42.3c-5.1,0-9.5-1.8-13-5.5
	c-3.5-3.7-5.3-8.3-5.3-14s1.8-10.2,5.3-13.8c3.5-3.6,7.9-5.3,13-5.3s9.4,1.8,12.8,5.3c3.4,3.6,5.1,8.2,5.1,13.8s-1.7,10.3-5.1,14
	C-744.3,40.4-748.6,42.3-753.7,42.3z"/>
<path class="st0" d="M-654.6,268c-12,0-20.9-4.5-26.8-13.6c-5.9-9.1-7-20.7-3.3-34.9l28.2-106.2c3.2-11.5,1.2-17.3-5.9-17.3
	c-5.1,0-10.2,3.7-15.2,11c-5,7.4-10.5,19.4-16.3,36c-1,2.9-2.7,4.4-5.1,4.4c-1.2,0-2.2-0.6-2.9-1.7c-0.7-1.1-0.9-2.5-0.4-4.2
	c14.2-44.4,31.9-66.5,53.2-66.5c8.3,0,13.9,3.4,16.9,10.3c2.9,6.9,2.8,16.3-0.4,28.3l-29,109.5c-2.7,10.3-2.9,18.2-0.5,23.7
	c2.3,5.5,6.5,8.3,12.7,8.3c7.1,0,14.6-3.4,22.6-10.3c7.9-6.9,15.5-15.8,22.6-26.8c7.1-11,12.8-23.2,17.2-36.4
	c4.4-13.2,6.6-26.2,6.6-39c0-10.3-1.1-18.4-3.3-24.4c-2.2-6-4.5-11.1-6.8-15.3c-2.3-4.2-3.5-8.7-3.5-13.6c0-9.6,4.2-14.3,12.5-14.3
	c11.7,0,17.6,13,17.6,39c0,18.6-2.7,37.1-8.1,55.3c-5.4,18.3-12.5,34.8-21.3,49.6c-8.8,14.8-18.5,26.7-29.2,35.7
	C-633.2,263.5-643.9,268-654.6,268L-654.6,268z"/>
<path class="st0" d="M-522.6,268c-8.8,0-15.7-3.8-20.5-11.4c-4.9-7.6-7.3-18.7-7.3-33.5s2-28,5.9-42.1c3.9-14.1,9.3-27.5,16.1-40.3
	c6.8-12.7,14.6-24,23.3-33.8c8.7-9.8,17.9-17.6,27.5-23.3c9.7-5.8,19.3-8.6,28.8-8.6c4.6,0,9,0.9,13.2,2.8c4.2,1.8,7.6,4.7,10.3,8.6
	c1.5,2.2,2.9,3.3,4.4,3.3s2.9-1.1,4.4-3.3c2.7-3.9,4.9-6.4,6.6-7.5c1.7-1.1,3.3-1.7,4.8-1.7c3.2,0,4.4,1.7,3.7,5.1l-32.7,140.8
	c-3.7,15.9-1.2,23.9,7.3,23.9c5.6,0,10.7-3.8,15.2-11.4c4.5-7.6,9.1-19.4,13.8-35.3c0.7-2.7,2.3-4,4.8-4c1.7,0,2.8,0.7,3.3,2.2
	c0.5,1.5,0.5,3.2,0,5.1c-4.7,23-10.9,39.5-18.7,49.4c-7.8,9.9-17.2,14.9-28.2,14.9c-9.5,0-16.3-4-20.4-12.1
	c-4-8.1-4.5-19.1-1.3-33.1l4.8-20.2c0.5-1.7,0.2-2.7-0.9-2.9c-1.1-0.2-2,0.4-2.8,1.8c-13.5,24.8-25.4,42-35.8,51.8
	C-503.4,263.1-513.2,268-522.6,268L-522.6,268z M-513.4,249.2c5.9,0,12.4-3.5,19.5-10.7c7.1-7.1,14.1-16.3,21.1-27.6
	c7-11.3,13.4-23.4,19.3-36.4c5.9-13,10.6-25.5,14.1-37.5c3.5-12,5.3-22.2,5.3-30.5c0-14.9-5.3-22.4-15.8-22.4
	c-6.4,0-13.1,2.9-20.2,8.6c-7.1,5.8-13.9,13.5-20.4,23.3c-6.5,9.8-12.3,20.9-17.6,33.3c-5.3,12.4-9.5,25.2-12.7,38.6
	c-3.2,13.4-4.8,26.4-4.8,39.2c0,8.6,1,14.4,3.1,17.5C-520.3,247.7-517.3,249.2-513.4,249.2L-513.4,249.2z"/>
<path class="st0" d="M-323.7,268c-8.6,0-15.6-3-21.1-9c-5.5-6-8.3-15.9-8.3-29.6V91.9c0-2.9-1.5-4.4-4.4-4.4h-10.6
	c-3.9,0-5.9-1.5-5.9-4.4c0-2,1.1-3.7,3.3-5.1c8.1-5.6,14.5-11.7,19.5-18.2c4.9-6.5,9.2-15.4,12.8-26.6c1.7-5.1,3.8-7.7,6.2-7.7
	c2.7,0,4,2,4,5.9v40.8c0,3.4,1.7,5.1,5.1,5.1h23.9c3.9,0,5.9,1.7,5.9,5.1c0,3.4-2,5.1-5.9,5.1H-323c-3.4,0-5.1,1.7-5.1,5.1v137.1
	c0,5.4,0.8,9.6,2.6,12.7c1.7,3.1,4.9,4.6,9.5,4.6c5.1,0,9.4-2.6,12.7-7.7c3.3-5.1,5.4-13.5,6.4-25c0.5-3.4,2.1-5.1,4.8-5.1
	c2.9,0,4.4,1.8,4.4,5.5c-0.7,18.9-4.6,32.5-11.6,40.8C-306.3,263.8-314.4,268-323.7,268L-323.7,268z"/>
<path class="st0" d="M-222.4,268c-15.2,0-27.2-6.3-36-18.9c-8.8-12.6-13.2-29.7-13.2-51.3c0-15.9,2.6-31.2,7.7-45.9
	c5.1-14.7,11.9-27.8,20.4-39.3c8.4-11.5,17.8-20.6,28.2-27.4c10.4-6.7,20.8-10.1,31.4-10.1c15.2,0,27.2,6.3,36,18.7
	c8.8,12.5,13.2,29.7,13.2,51.5c0,15.9-2.6,31.2-7.7,45.9c-5.1,14.7-11.9,27.8-20.4,39.3c-8.4,11.5-17.9,20.6-28.2,27.4
	C-201.5,264.6-211.9,268-222.4,268L-222.4,268z M-223.2,259.2c7.8,0,15.5-3.8,22.9-11.4c7.5-7.6,14.2-17.6,20.4-30.1
	c6.1-12.5,11-26.4,14.7-41.7c3.7-15.3,5.5-30.7,5.5-46.1c0-30.6-7.9-45.9-23.8-45.9c-7.6,0-15.2,3.7-22.8,11.2
	c-7.6,7.5-14.4,17.5-20.4,30c-6,12.5-10.8,26.4-14.5,41.7c-3.7,15.3-5.5,30.7-5.5,46.1C-246.6,243.7-238.8,259.2-223.2,259.2z"/>
<path class="st0" d="M-66.9,100.7C-56.8,83.6-44.7,75-30.6,75c8.1,0,14.1,2.4,18,7.2c3.9,4.8,5.9,10.1,5.9,16
	c0,4.7-1.2,8.5-3.5,11.4c-2.3,2.9-5.9,4.4-10.8,4.4c-3.9,0-6.8-0.9-8.6-2.8c-1.8-1.8-3.3-4-4.4-6.4c-1.1-2.4-2.4-4.6-3.8-6.4
	c-1.5-1.8-3.9-2.8-7.3-2.8c-4.4,0-8.6,2.6-12.5,7.9c-3.9,5.3-7.2,12.3-9.7,21.1c-2.6,8.8-3.8,18.9-3.8,30.1V240
	c0,5.1,0.8,8.8,2.4,11c1.6,2.2,4.9,3.6,10.1,4l9.9,1.1c2.7,0.5,4,1.8,4,4c0,2.9-1.8,4.4-5.5,4.4h-62c-3.7,0-5.5-1.3-5.5-4
	c0-2.2,1.6-3.7,4.8-4.4l4.4-0.7c5.1-1,8.5-2.5,10.1-4.6c1.6-2.1,2.4-5.7,2.4-10.8V116.6c0-4.4-0.7-7.4-2-9c-1.3-1.6-3.7-2.6-7.2-3.1
	l-7.7-1.1c-3.2-0.2-4.8-1.6-4.8-4c0-2,1.9-3.3,5.9-4c7.6-1.2,13.4-3.2,17.4-5.9c4-2.7,8.3-6,12.7-9.9c2.2-2.2,4-3.3,5.5-3.3
	c2.2,0,3.3,1.5,3.3,4.4v19.8c0,1.7,0.7,2.8,2.2,3.1C-69.4,103.9-68.1,102.9-66.9,100.7L-66.9,100.7z"/>
<path class="st0" d="M45,268c-5.6,0-11.6-0.7-18-2c-6.4-1.3-11.5-3-15.4-5c-2.2-1.2-3.3-3.3-3.3-6.3l-1.1-41.2
	c0-4.2,1.6-6.3,4.8-6.3c2.7,0,4.5,2,5.5,5.9c4.2,17.4,9.2,29.3,15.2,35.7c6,6.4,13.3,9.6,21.8,9.6c7.1,0,13-2.8,17.6-8.3
	c4.6-5.5,7-13.2,7-23c0-9.8-2.7-18.5-8.1-26.1c-5.4-7.6-14.4-15.9-27.2-25c-12.7-8.6-22-17.2-27.9-25.9c-5.9-8.7-8.8-18.2-8.8-28.5
	c0-14,4.9-25.2,14.7-33.8C31.7,79.3,44.7,75,60.8,75c4.9,0,9.7,0.6,14.3,1.7c4.6,1.1,8.8,2.9,12.5,5.3c2.2,1.5,3.3,3.4,3.3,5.9
	l0.7,40.4c0,3.7-1.5,5.5-4.4,5.5c-1.7,0-2.9-0.6-3.7-1.7c-0.7-1.1-1.3-2.5-1.8-4.2c-4.9-15.9-9.8-27-14.7-33.3
	c-4.9-6.3-10.9-9.4-18-9.4c-6.4,0-11.6,2.2-15.8,6.6c-4.2,4.4-6.2,9.9-6.2,16.5c0,8.6,2.6,16.1,7.7,22.4
	c5.1,6.4,14.4,14.2,27.9,23.5c12.2,8.8,21.5,18.3,27.7,28.5c6.2,10.2,9.4,21.3,9.4,33.3c0,15.7-5,28.2-15,37.7
	C74.6,263.2,61.4,268,45,268L45,268z"/>
</svg>
